<svg xmlns="http://www.w3.org/2000/svg" viewBox="0 0 512 512" width="100%" height="100%">
  <defs>
    <linearGradient id="ecoGrad" x1="0%" y1="0%" x2="100%" y2="100%">
      <stop offset="0%" stop-color="#059669"/>
      <stop offset="50%" stop-color="#10b981"/>
      <stop offset="100%" stop-color="#34d399"/>
    </linearGradient>
  </defs>
  <rect width="512" height="512" rx="128" fill="#0f172a"/>
  <path fill="url(#ecoGrad)" d="M256 64c-88.37 0-160 71.63-160 160 0 44.2 17.9 84.2 46.9 113.1l-24.6 24.6c-6.2 6.2-6.2 16.4 0 22.6 6.2 6.2 16.4 6.2 22.6 0l42.4-42.4c3.1-3.1 4.7-7.2 4.7-11.3v-4.8C206 341.2 230 352 256 352c88.37 0 160-71.63 160-160S344.37 64 256 64zm0 256c-53.02 0-96-42.98-96-96s42.98-96 96-96 96 42.98 96 96-42.98 96-96 96z"/>
  <path fill="#facc15" d="M256 128c-35.35 0-64 28.65-64 64 0 17.68 7.16 33.68 18.75 45.25L192 256l38.4-12.8L243.2 281.6l12.8-38.4 12.8 38.4 12.8-38.4L320 256l-18.75-18.75C312.84 225.68 320 209.68 320 192c0-35.35-28.65-64-64-64z"/>
</svg>
